<?xml version="1.0" encoding="UTF-8"?> <svg xmlns="http://www.w3.org/2000/svg" xmlns:xlink="http://www.w3.org/1999/xlink" width="50" height="50" viewBox="0 0 50 50"><defs><clipPath id="a"><rect x="3.09" y="8.11" width="43.82" height="33.78" fill="none"></rect></clipPath></defs><g clip-path="url(#a)"><path d="M41.34,16H8.66a2,2,0,0,0-2,2.05V40.63a1.26,1.26,0,0,0,1.26,1.26H18.66v-15a1.27,1.27,0,0,1,1.26-1.26H30.08a1.27,1.27,0,0,1,1.26,1.26v15H42.12a1.26,1.26,0,0,0,1.26-1.26V18.05a2,2,0,0,0-2-2.05" fill="#702bff"></path><path d="M42.63,8.11H7.37a1.14,1.14,0,0,0-1,.7L3.18,16.35a1.14,1.14,0,0,0,1.05,1.58H45.77a1.14,1.14,0,0,0,1-1.58L43.68,8.81a1.14,1.14,0,0,0-1-.7" fill="#d15287"></path></g></svg> 